<?xml version="1.0" ?><svg xmlns="http://www.w3.org/2000/svg" xmlns:xlink="http://www.w3.org/1999/xlink" version="1.1" viewBox="0 0 94 94" style="enable-background:new 0 0 94 94;" xml:space="preserve"><style type="text/css">
	.st0{display:none;}
	.st1{display:inline;fill:#FEA900;}
	.st2{display:inline;}
	.st3{display:inline;fill:#F9CD6C;}
	.st4{display:inline;fill:none;stroke:#000000;stroke-width:0.25;stroke-miterlimit:10;}
	.st5{stroke:#000000;stroke-linecap:round;stroke-linejoin:round;stroke-miterlimit:10;}
	.st6{opacity:0.2;stroke:#000000;stroke-linecap:round;stroke-linejoin:round;stroke-miterlimit:10;}
	.st7{fill:#F12A00;stroke:#000000;stroke-linecap:round;stroke-linejoin:round;stroke-miterlimit:10;}
	.st8{fill:#FBECCF;stroke:#000000;stroke-linecap:round;stroke-linejoin:round;stroke-miterlimit:10;}
	.st9{opacity:0.2;fill:#F12A00;}
	.st10{fill:#F7C86C;stroke:#000000;stroke-linecap:round;stroke-linejoin:round;stroke-miterlimit:10;}
	.st11{fill:none;stroke:#000000;stroke-linecap:round;stroke-linejoin:round;stroke-miterlimit:10;}
	.st12{display:inline;stroke:#000000;stroke-linecap:round;stroke-linejoin:round;stroke-miterlimit:10;}
	.st13{fill:#FAAC01;stroke:#000000;stroke-linecap:round;stroke-linejoin:round;stroke-miterlimit:10;}
	.st14{fill:#FAAC01;}
	.st15{display:inline;fill:#FAEBCE;stroke:#000000;stroke-width:0.25;stroke-miterlimit:10;}
	.st16{display:inline;fill:none;stroke:#000000;stroke-width:1.0164;stroke-miterlimit:10;}
	.st17{display:inline;fill:#FAEBCE;stroke:#000000;stroke-width:1.0164;stroke-miterlimit:10;}
	.st18{fill:#FEA900;}
	.st19{fill:#F9CD6C;}
	.st20{fill:none;stroke:#000000;stroke-width:1.0164;stroke-miterlimit:10;}
	.st21{fill:#FAEBCE;stroke:#000000;stroke-width:1.0164;stroke-miterlimit:10;}
	.st22{display:inline;fill:#FAEBCE;}
	.st23{fill:#008FF5;stroke:#000000;stroke-linecap:round;stroke-linejoin:round;stroke-miterlimit:10;}
	.st24{fill:#D0E6FB;stroke:#000000;stroke-linecap:round;stroke-linejoin:round;stroke-miterlimit:10;}
	.st25{fill:#FFFFFF;stroke:#000000;stroke-linecap:round;stroke-linejoin:round;stroke-miterlimit:10;}
	.st26{fill:#75D95D;stroke:#000000;stroke-linecap:round;stroke-linejoin:round;stroke-miterlimit:10;}
	.st27{fill:#CAF3BB;}
	.st28{fill:#FFFFFF;}
	.st29{fill:#CAF3BB;stroke:#000000;stroke-linecap:round;stroke-linejoin:round;stroke-miterlimit:10;}
	.st30{display:inline;fill:#D0E6FB;stroke:#000000;stroke-linecap:round;stroke-linejoin:round;stroke-miterlimit:10;}
	.st31{stroke:#FFFFFF;stroke-linecap:round;stroke-linejoin:round;stroke-miterlimit:10;}
	.st32{fill:#B4B2FB;stroke:#000000;stroke-linecap:round;stroke-linejoin:round;stroke-miterlimit:10;}
	.st33{fill:#018BEE;}
	.st34{display:inline;fill:none;stroke:#000000;stroke-linecap:round;stroke-linejoin:round;stroke-miterlimit:10;}
	.st35{fill:#75D95D;}
	.st36{fill:#4949F7;stroke:#000000;stroke-linecap:round;stroke-linejoin:round;stroke-miterlimit:10;}
	.st37{fill:#D0E6FB;}
	.st38{fill:#6FBBF7;stroke:#000000;stroke-linecap:round;stroke-linejoin:round;stroke-miterlimit:10;}
	.st39{fill:#018BEE;stroke:#000000;stroke-linecap:round;stroke-linejoin:round;stroke-miterlimit:10;}
	.st40{fill:#B4B2FB;}
	.st41{fill:#E8E9FE;}
	.st42{fill:#B4B2FB;stroke:#000F24;stroke-miterlimit:10;}
	.st43{stroke:#000000;stroke-miterlimit:10;}
	.st44{fill:#E8E9FE;stroke:#000000;stroke-linecap:round;stroke-linejoin:round;stroke-miterlimit:10;}
	.st45{opacity:0.3;fill:#018BEE;}
	.st46{fill:#6FBBF7;}
	.st47{fill:#FAAC01;stroke:#FFFFFF;stroke-linecap:round;stroke-linejoin:round;stroke-miterlimit:10;}
	.st48{fill:#006A2F;}
	.st49{opacity:0.1;}
	.st50{fill:#FCD4CA;stroke:#000000;stroke-linecap:round;stroke-linejoin:round;stroke-miterlimit:10;}
	.st51{fill:#006A2F;stroke:#000000;stroke-linecap:round;stroke-linejoin:round;stroke-miterlimit:10;}
	.st52{fill:#4949F7;}
	.st53{fill:#F12A00;}
	.st54{fill:#D0E6FB;stroke:#018BEE;stroke-linecap:round;stroke-linejoin:round;stroke-miterlimit:10;}
	.st55{fill:#9CD7FF;}
	.st56{fill:#F7C86C;}
	.st57{opacity:0.3;stroke:#000000;stroke-linecap:round;stroke-linejoin:round;stroke-miterlimit:10;}
	.st58{opacity:0.1;stroke:#000000;stroke-linecap:round;stroke-linejoin:round;stroke-miterlimit:10;}
	.st59{opacity:0.3;fill:#006A2F;}
	.st60{stroke:#000000;stroke-width:1.0825;stroke-linecap:round;stroke-linejoin:round;stroke-miterlimit:10;}
	.st61{fill:#D0E6FB;stroke:#000000;stroke-width:1.0825;stroke-linecap:round;stroke-linejoin:round;stroke-miterlimit:10;}
	.st62{fill:#6FBBF7;stroke:#000000;stroke-width:1.0825;stroke-linecap:round;stroke-linejoin:round;stroke-miterlimit:10;}
	.st63{fill:none;stroke:#000000;stroke-width:1.0825;stroke-linecap:round;stroke-linejoin:round;stroke-miterlimit:10;}
	.st64{fill:#CAF3BB;stroke:#000000;stroke-width:0.7876;stroke-linecap:round;stroke-linejoin:round;stroke-miterlimit:10;}
	.st65{fill:#6FBBF7;stroke:#FFFFFF;stroke-linecap:round;stroke-linejoin:round;stroke-miterlimit:10;}
	.st66{opacity:0.2;}
	.st67{stroke:#E8E9FE;stroke-linecap:round;stroke-linejoin:round;stroke-miterlimit:10;}
	.st68{fill:#FCD4CA;}
	.st69{fill:#FBECCF;}
	.st70{opacity:0.1;fill:#F12A00;}
	.st71{opacity:0.5;stroke:#000000;stroke-linecap:round;stroke-linejoin:round;stroke-miterlimit:10;}
	.st72{fill:#6FBBF7;stroke:#E8E9FE;stroke-linecap:round;stroke-linejoin:round;stroke-miterlimit:10;}
	.st73{opacity:0.5;fill:#D0E6FB;}
	.st74{fill:#70BAF7;}
	.st75{fill:none;stroke:#FFFFFF;stroke-linecap:round;stroke-linejoin:round;stroke-miterlimit:10;}
	.st76{fill:#70BAF7;stroke:#70BAF7;stroke-linecap:round;stroke-linejoin:round;stroke-miterlimit:10;}
	.st77{fill:#018BEE;stroke:#018BEE;stroke-linecap:round;stroke-linejoin:round;stroke-miterlimit:10;}
	.st78{fill:#70BAF7;stroke:#000000;stroke-linecap:round;stroke-linejoin:round;stroke-miterlimit:10;}
	.st79{fill:#F9CD6C;stroke:#000000;stroke-linecap:round;stroke-linejoin:round;stroke-miterlimit:10;}
	.st80{fill:none;}
	.st81{fill:#006A2F;stroke:#006A2F;stroke-miterlimit:10;}
	.st82{fill:#B4DFFC;}
	.st83{fill:#6FBBF7;stroke:#018BEE;stroke-linecap:round;stroke-linejoin:round;stroke-miterlimit:10;}
	.st84{fill:none;stroke:#FBECCF;stroke-linecap:round;stroke-linejoin:round;stroke-miterlimit:10;}
	.st85{fill:none;stroke:#018BEE;stroke-linecap:round;stroke-linejoin:round;stroke-miterlimit:10;}
	.st86{fill:#010101;stroke:#FFFFFF;stroke-linecap:round;stroke-linejoin:round;stroke-miterlimit:10;}
	.st87{fill:#010101;stroke:#000000;stroke-linecap:round;stroke-linejoin:round;stroke-miterlimit:10;}
	.st88{fill:#75D95D;stroke:#FFFFFF;stroke-linecap:round;stroke-linejoin:round;stroke-miterlimit:10;}
	.st89{fill:#94F279;stroke:#000000;stroke-linecap:round;stroke-linejoin:round;stroke-miterlimit:10;}
	.st90{fill:#8C8CF9;}
	.st91{fill:#008FF5;}
	.st92{fill:#8CD8F9;}
	.st93{fill:#FFC043;}
	.st94{fill:#94F279;}
	.st95{fill:#FF3D1D;}
	.st96{fill:#31B1FF;}
	.st97{fill:#FFCF7B;}
	.st98{fill:#B2FF99;}
	.st99{fill:#D7D7FF;}
	.st100{fill:#FF7C6E;}
	.st101{fill:#5CC9FF;}
	.st102{fill:#F12A00;stroke:#FFFFFF;stroke-linecap:round;stroke-linejoin:round;stroke-miterlimit:10;}
	.st103{fill:#F7C86C;stroke:#000000;stroke-width:1.0164;stroke-miterlimit:10;}
</style><g id="Refrences" class="st0"/><g id="Tittle"/><g id="Icons"><g><g><path class="st18" d="M66.39,40.29c-3.89-7.63-2.83-15.99,2.38-18.64l3.74-1.9c-5.21,2.65-6.26,11-2.38,18.64     c3.9,7.66,11.28,11.71,16.48,9.06l-3.74,1.9C77.67,52,70.29,47.95,66.39,40.29z"/><path d="M68,31.78c-0.79-5.35,0.8-10.14,4.51-12.03l-3.74,1.9c-3.71,1.89-5.3,6.67-4.51,12.03L68,31.78z"/><path class="st20" d="M66.39,40.29c-3.89-7.63-2.83-15.99,2.38-18.64l3.74-1.9c-5.21,2.65-6.26,11-2.38,18.64     c3.9,7.66,11.28,11.71,16.48,9.06l-3.74,1.9C77.67,52,70.29,47.95,66.39,40.29z"/><ellipse transform="matrix(0.8911 -0.4538 0.4538 0.8911 -6.5808 39.7669)" class="st21" cx="79.56" cy="33.59" rx="10.57" ry="15.55"/><ellipse transform="matrix(0.8911 -0.4538 0.4538 0.8911 -6.5808 39.7669)" class="st19" cx="79.56" cy="33.59" rx="8.45" ry="12.43"/><path class="st18" d="M72.03,37.42c-1.85-3.63-2.3-7.44-1.5-10.38c-0.02,2.34,0.61,4.93,1.87,7.41     c3.13,6.14,9.01,9.37,13.17,7.26c1.71-0.87,2.87-2.51,3.39-4.58c0.02,3.4-1.29,6.28-3.77,7.54     C81.05,46.79,75.16,43.56,72.03,37.42z"/><ellipse transform="matrix(0.8911 -0.4538 0.4538 0.8911 -6.5808 39.7669)" class="st20" cx="79.56" cy="33.59" rx="8.45" ry="12.43"/><g><path d="M76.13,26.26l0.68,1.33c0.49-0.15,0.94-0.18,1.33-0.11c0.39,0.07,0.81,0.29,1.26,0.66c0.45,0.37,0.86,0.89,1.25,1.56      l-0.78,0.71c-0.43-0.68-0.82-1.14-1.17-1.38c-0.49-0.34-0.93-0.45-1.31-0.32l2.15,4.22c0.42-0.09,0.91-0.07,1.46,0.05      c0.41,0.09,0.8,0.3,1.16,0.64c0.37,0.34,0.69,0.77,0.96,1.3c0.48,0.94,0.64,1.82,0.49,2.64c-0.1,0.55-0.43,1.02-0.99,1.41      l0.87,1.7l-0.53,0.27l-0.87-1.7c-0.56,0.19-1.09,0.18-1.59-0.04c-0.64-0.28-1.21-0.82-1.72-1.62l0.83-0.68      c0.32,0.49,0.63,0.84,0.94,1.03s0.63,0.26,0.97,0.2l-1.95-3.83c-0.54,0.06-0.91,0.09-1.1,0.07c-0.37-0.04-0.71-0.14-1.02-0.31      s-0.6-0.41-0.88-0.72c-0.28-0.31-0.52-0.67-0.74-1.09c-0.47-0.92-0.66-1.79-0.57-2.6c0.08-0.82,0.43-1.41,1.04-1.77l-0.68-1.34      L76.13,26.26z M82.05,37.88c0.31-0.26,0.48-0.6,0.51-1.04c0.03-0.44-0.07-0.88-0.3-1.34c-0.23-0.45-0.51-0.79-0.84-1      c-0.33-0.22-0.74-0.31-1.25-0.28L82.05,37.88z M76.85,28.98c-0.32,0.24-0.49,0.61-0.53,1.11c-0.03,0.5,0.09,1.03,0.38,1.6      c0.25,0.48,0.52,0.83,0.83,1.04c0.31,0.21,0.77,0.31,1.37,0.29L76.85,28.98z"/></g></g><g><path class="st18" d="M6.15,73.51c-5.19-6.82-5.63-15.23-0.98-18.76l3.34-2.54c-4.65,3.54-4.2,11.94,0.98,18.76     c5.2,6.84,13.18,9.52,17.83,5.98l-3.34,2.54C19.33,83.02,11.35,80.35,6.15,73.51z"/><path d="M6.21,64.84C4.48,59.71,5.19,54.72,8.51,52.2l-3.34,2.54c-3.31,2.52-4.03,7.51-2.29,12.64L6.21,64.84z"/><path class="st20" d="M6.15,73.51c-5.19-6.82-5.63-15.23-0.98-18.76l3.34-2.54c-4.65,3.54-4.2,11.94,0.98,18.76     c5.2,6.84,13.18,9.52,17.83,5.98l-3.34,2.54C19.33,83.02,11.35,80.35,6.15,73.51z"/><ellipse transform="matrix(0.796 -0.6053 0.6053 0.796 -35.4307 24.0184)" class="st21" cx="17.92" cy="64.57" rx="10.57" ry="15.55"/><ellipse transform="matrix(0.796 -0.6053 0.6053 0.796 -35.4307 24.0184)" class="st19" cx="17.92" cy="64.57" rx="8.45" ry="12.43"/><path class="st18" d="M11.19,69.68c-2.47-3.24-3.59-6.92-3.32-9.94c0.4,2.3,1.48,4.74,3.16,6.96c4.17,5.48,10.54,7.62,14.25,4.79     c1.52-1.16,2.37-2.98,2.52-5.11c0.62,3.34-0.15,6.41-2.36,8.1C21.73,77.3,15.36,75.16,11.19,69.68z"/><ellipse transform="matrix(0.796 -0.6053 0.6053 0.796 -35.4307 24.0184)" class="st20" cx="17.92" cy="64.57" rx="8.45" ry="12.43"/><g><path d="M13.23,57.96l0.9,1.19c0.46-0.23,0.89-0.35,1.29-0.35s0.85,0.14,1.36,0.43c0.51,0.29,1.01,0.73,1.51,1.32l-0.64,0.84      c-0.55-0.59-1.01-0.97-1.4-1.15c-0.55-0.25-1-0.28-1.35-0.08l2.87,3.77c0.4-0.16,0.88-0.23,1.45-0.21      c0.42,0.02,0.84,0.16,1.26,0.42c0.42,0.27,0.81,0.64,1.17,1.11c0.64,0.84,0.96,1.68,0.95,2.51c0,0.56-0.24,1.08-0.72,1.56      l1.16,1.52l-0.47,0.36l-1.16-1.52c-0.52,0.29-1.04,0.37-1.58,0.24c-0.68-0.16-1.34-0.59-1.98-1.29l0.69-0.82      c0.4,0.43,0.77,0.71,1.11,0.84c0.34,0.13,0.67,0.14,0.99,0.02l-2.6-3.42c-0.52,0.16-0.88,0.25-1.07,0.26      c-0.37,0.03-0.73-0.01-1.06-0.13c-0.34-0.11-0.67-0.3-1-0.55s-0.64-0.57-0.92-0.94c-0.62-0.82-0.97-1.64-1.03-2.46      c-0.06-0.82,0.17-1.46,0.71-1.93l-0.91-1.2L13.23,57.96z M21.12,68.34c0.26-0.31,0.37-0.68,0.32-1.12      c-0.05-0.44-0.22-0.86-0.54-1.27c-0.31-0.4-0.64-0.68-1-0.84c-0.36-0.16-0.79-0.17-1.28-0.06L21.12,68.34z M14.42,60.51      c-0.27,0.3-0.38,0.69-0.32,1.19c0.06,0.5,0.28,1,0.66,1.5c0.33,0.43,0.66,0.72,1.01,0.87c0.34,0.15,0.81,0.17,1.4,0.04      L14.42,60.51z"/></g></g><g><path class="st18" d="M84.9,86.96c6.31-5.8,8.23-14,4.27-18.3l-2.84-3.09c3.96,4.3,2.04,12.5-4.27,18.3     c-6.32,5.82-14.65,7.05-18.61,2.75l2.84,3.09C70.25,94.01,78.58,92.78,84.9,86.96z"/><path d="M86.36,78.42c2.61-4.74,2.78-9.78-0.03-12.85l2.84,3.09c2.82,3.06,2.64,8.1,0.03,12.85L86.36,78.42z"/><path class="st20" d="M84.9,86.96c6.31-5.8,8.23-14,4.27-18.3l-2.84-3.09c3.96,4.3,2.04,12.5-4.27,18.3     c-6.32,5.82-14.65,7.05-18.61,2.75l2.84,3.09C70.25,94.01,78.58,92.78,84.9,86.96z"/><ellipse transform="matrix(0.736 -0.677 0.677 0.736 -31.7427 70.7904)" class="st21" cx="74.89" cy="76.09" rx="15.55" ry="10.57"/><ellipse transform="matrix(0.736 -0.677 0.677 0.736 -31.7427 70.7904)" class="st19" cx="74.89" cy="76.09" rx="12.43" ry="8.45"/><path class="st18" d="M80.62,82.3c3-2.76,4.75-6.17,5.02-9.2c-0.8,2.19-2.29,4.41-4.34,6.3c-5.07,4.66-11.72,5.64-14.88,2.21     c-1.3-1.41-1.81-3.35-1.58-5.48c-1.2,3.18-0.98,6.33,0.9,8.39C68.9,87.95,75.55,86.97,80.62,82.3z"/><ellipse transform="matrix(0.736 -0.677 0.677 0.736 -31.7427 70.7904)" class="st20" cx="74.89" cy="76.09" rx="12.43" ry="8.45"/><g><path d="M81.07,70.85l-1.11,1.02c0.44,0.56,0.56,1.23,0.36,2.03c-0.21,0.8-0.69,1.54-1.45,2.24c-0.35,0.32-0.7,0.57-1.07,0.77      c-0.37,0.19-0.73,0.32-1.08,0.37s-0.71,0.03-1.07-0.06c-0.19-0.05-0.52-0.2-1.01-0.45l-3.16,2.91c0.3,0.18,0.62,0.23,0.98,0.16      c0.36-0.07,0.77-0.28,1.24-0.63l0.54,0.93c-0.76,0.57-1.48,0.88-2.18,0.92c-0.55,0.03-1.05-0.14-1.51-0.52l-1.41,1.29l-0.4-0.44      l1.41-1.29c-0.38-0.56-0.53-1.12-0.43-1.67c0.14-0.82,0.6-1.59,1.38-2.31c0.44-0.4,0.89-0.7,1.35-0.89      c0.46-0.19,0.9-0.25,1.31-0.2c0.56,0.08,1.02,0.23,1.39,0.46l3.49-3.21c-0.31-0.25-0.76-0.3-1.34-0.15      c-0.41,0.11-0.94,0.4-1.58,0.89l-0.48-0.94c0.59-0.5,1.17-0.84,1.72-1.03c0.55-0.19,1.02-0.25,1.41-0.18s0.79,0.26,1.2,0.57      l1.1-1.01L81.07,70.85z M74.1,76.45c-0.46-0.2-0.88-0.26-1.27-0.17c-0.38,0.09-0.76,0.31-1.13,0.65      c-0.38,0.35-0.63,0.73-0.75,1.15c-0.12,0.42-0.08,0.81,0.12,1.16L74.1,76.45z M75.71,75.78c0.56,0.22,1.02,0.29,1.39,0.2      c0.36-0.09,0.75-0.32,1.14-0.68c0.47-0.43,0.77-0.88,0.91-1.36c0.14-0.48,0.11-0.89-0.11-1.23L75.71,75.78z"/></g></g><g><g><g><path class="st8" d="M11.27,25.8c1.16,0,2.11-4.11,2.11-9.19s-0.94-9.19-2.11-9.19H9.16V25.8H11.27z"/><ellipse class="st13" cx="9.16" cy="16.61" rx="2.11" ry="9.19"/></g></g></g><g><g><g><path class="st8" d="M21.21,43.39c1.16,0,2.11-4.11,2.11-9.19s-0.94-9.19-2.11-9.19H19.1v18.38H21.21z"/><ellipse class="st13" cx="19.1" cy="34.2" rx="2.11" ry="9.19"/></g></g></g><g><g><path d="M60.91,61.7c0,0,4.36-6.73,3.03-12.54c-0.52-2.26-2.45-4.78-4.74-5.14l-3.83-0.6"/><g><g><g><path d="M54.04,43.19c-0.3-0.03-0.59,0.03-0.85,0.13h0.47v3.85c1.99,1.53,4.5,4.38,4.05,6.47c-0.01,4.49-3.57,8.13-8.01,8.29         v15.7l3.88,0.01c0.01-2.1,0.68-4.15,1.91-5.86c7.8-10.81,6.24-16.79,6.59-16.47C62.06,55.31,63.06,44.24,54.04,43.19z"/><path class="st49" d="M49.69,71.75v5.88l3.88,0.01c0.01-2.1,0.68-4.15,1.91-5.86c0.93-1.29,1.72-2.5,2.4-3.65         C55.11,70.06,52.39,71.25,49.69,71.75z"/><path d="M54.87,77.64l-5.19-0.01v5.1l5.17,0.01c0.7,0,1.26-0.56,1.26-1.26l0.01-2.58C56.13,78.21,55.57,77.64,54.87,77.64z"/><path d="M56.21,82.75l-6.52-0.02v9.07l6.49,0.02c0.6,0,1.09-0.49,1.1-1.09l0.03-6.89C57.3,83.24,56.81,82.75,56.21,82.75z"/><path d="M52.44,91.81l1.72,0c1.72,0,3.11-0.83,3.11-1.87l0.02-5.32c0-1.04-1.39-1.88-3.1-1.88l-1.72,0         C56.31,86.64,56.07,87.09,52.44,91.81z"/><path d="M56.21,82.75l-6.52-0.02v9.07l6.49,0.02c0.6,0,1.09-0.49,1.1-1.09l0.03-6.89C57.3,83.24,56.81,82.75,56.21,82.75z"/><path d="M54.04,43.19c-0.3-0.03-0.59,0.03-0.85,0.13h0.47v3.85c1.99,1.53,4.5,4.38,4.05,6.47c-0.01,4.49-3.57,8.13-8.01,8.29         v15.7l3.88,0.01c0.01-2.1,0.68-4.15,1.91-5.86c7.8-10.81,6.24-16.79,6.59-16.47C62.06,55.31,63.06,44.24,54.04,43.19z"/></g></g></g></g><g><path class="st50" d="M59.47,61.7c0,0,4.36-6.73,3.03-12.54c-0.52-2.26-2.45-4.78-4.74-5.14l-3.83-0.6"/><g><g><g><path class="st50" d="M56.26,53.64c-0.01,4.6-3.75,8.32-8.35,8.31h0c-4.6-0.01-8.32-3.75-8.31-8.35l0.02-7.97         c0-1.39-1.12-2.52-2.51-2.52l-0.39,0c-1.39,0-2.52,1.12-2.52,2.51l-0.04,15.97c0,1.13-0.07,2.25-0.14,3.38         c-0.07,1.21,0.1,3.63,1.78,7.18c0.63,1.34,0.96,2.82,0.96,4.3l0,1.16l15.37,0.04l0,0c0.01-2.1,0.68-4.15,1.91-5.86         c7.8-10.81,6.24-16.79,6.59-16.47c0,0,1-11.07-8.02-12.12c-0.76-0.09-1.49,0.32-1.84,1l0,0c-0.45,0.86-0.15,1.91,0.67,2.43         C53.45,47.9,56.77,51.26,56.26,53.64"/><path class="st70" d="M34.37,68.13c0.26,1.12,0.7,2.44,1.44,4.01c0.63,1.34,0.96,2.82,0.96,4.3l0,1.16l15.37,0.04         c0.01-2.1,0.68-4.15,1.91-5.86c0.93-1.29,1.72-2.5,2.4-3.65C48.82,73.43,41.48,73.25,34.37,68.13z"/><path class="st25" d="M33.97,81.43l0.01-2.58c0-0.7,0.57-1.26,1.26-1.26l18.19,0.04c0.7,0,1.26,0.57,1.26,1.26l-0.01,2.58         c0,0.7-0.57,1.26-1.26,1.26L35.22,82.7C34.53,82.7,33.96,82.13,33.97,81.43z"/><path class="st26" d="M32.76,90.67l0.03-6.89c0-0.6,0.49-1.09,1.1-1.09l20.88,0.05c0.6,0,1.09,0.49,1.09,1.1l-0.03,6.89         c0,0.6-0.49,1.09-1.1,1.09l-20.88-0.05C33.24,91.77,32.75,91.28,32.76,90.67z"/><path class="st27" d="M51,91.81l1.72,0c1.72,0,3.11-0.83,3.11-1.87l0.02-5.32c0-1.04-1.39-1.88-3.1-1.88l-1.72,0         C54.87,86.64,54.63,87.09,51,91.81z"/><path class="st11" d="M32.76,90.67l0.03-6.89c0-0.6,0.49-1.09,1.1-1.09l20.88,0.05c0.6,0,1.09,0.49,1.09,1.1l-0.03,6.89         c0,0.6-0.49,1.09-1.1,1.09l-20.88-0.05C33.24,91.77,32.75,91.28,32.76,90.67z"/><path class="st11" d="M56.26,53.64c-0.01,4.6-3.75,8.32-8.35,8.31h0c-4.6-0.01-8.32-3.75-8.31-8.35l0.02-7.97         c0-1.39-1.12-2.52-2.51-2.52l-0.39,0c-1.39,0-2.52,1.12-2.52,2.51l-0.04,15.97c0,1.13-0.07,2.25-0.14,3.38         c-0.07,1.21,0.1,3.63,1.78,7.18c0.63,1.34,0.96,2.82,0.96,4.3l0,1.16l15.37,0.04l0,0c0.01-2.1,0.68-4.15,1.91-5.86         c7.8-10.81,6.24-16.79,6.59-16.47c0,0,1-11.07-8.02-12.12c-0.76-0.09-1.49,0.32-1.84,1l0,0c-0.45,0.86-0.15,1.91,0.67,2.43         C53.45,47.9,56.77,51.26,56.26,53.64"/></g><circle class="st27" cx="35.89" cy="89.28" r="1.19"/></g></g></g></g><g><circle class="st5" cx="46.18" cy="41.25" r="4.8"/><path class="st5" d="M57.49,17.44c0-6.67-5.78-11.99-12.6-11.24c-4.97,0.55-9.11,4.48-9.88,9.42c-0.49,3.17,0.33,6.13,2.01,8.44     c2.15,2.95,3.5,6.41,3.5,10.06v0.92h11.31v-0.93c0-3.61,1.27-7.06,3.43-9.95C56.66,22.29,57.49,19.96,57.49,17.44z"/><path class="st5" d="M53,37.9H39.37c-0.67,0-1.21-0.54-1.21-1.21v-0.94c0-0.67,0.54-1.21,1.21-1.21H53     c0.67,0,1.21,0.54,1.21,1.21v0.94C54.2,37.36,53.66,37.9,53,37.9z"/><path class="st5" d="M53,41.25H39.37c-0.67,0-1.21-0.54-1.21-1.21V39.1c0-0.67,0.54-1.21,1.21-1.21H53     c0.67,0,1.21,0.54,1.21,1.21v0.94C54.2,40.71,53.66,41.25,53,41.25z"/><line class="st5" x1="46.18" y1="34.55" x2="46.18" y2="21.11"/><circle class="st5" cx="46.18" cy="20.59" r="3.43"/><circle class="st32" cx="44.16" cy="41.25" r="4.8"/><path class="st13" d="M55.47,17.44c0-6.67-5.78-11.99-12.6-11.24c-4.97,0.55-9.11,4.48-9.88,9.42c-0.49,3.17,0.33,6.13,2.01,8.44     c2.15,2.95,3.5,6.41,3.5,10.06v0.92h11.31v-0.93c0-3.61,1.27-7.06,3.43-9.95C54.64,22.29,55.47,19.96,55.47,17.44z"/><path class="st44" d="M50.98,37.9H37.35c-0.67,0-1.21-0.54-1.21-1.21v-0.94c0-0.67,0.54-1.21,1.21-1.21h13.63     c0.67,0,1.21,0.54,1.21,1.21v0.94C52.18,37.36,51.64,37.9,50.98,37.9z"/><path class="st44" d="M50.98,41.25H37.35c-0.67,0-1.21-0.54-1.21-1.21V39.1c0-0.67,0.54-1.21,1.21-1.21h13.63     c0.67,0,1.21,0.54,1.21,1.21v0.94C52.18,40.71,51.64,41.25,50.98,41.25z"/><path class="st56" d="M54.75,18.91c-0.23,1.98-1.58,4.46-3.17,6.53L35.05,11.85c0.89-2.03,2.81-2.8,4.68-4.07L54.75,18.91z"/><line class="st32" x1="44.16" y1="34.55" x2="44.16" y2="21.11"/><circle class="st38" cx="44.16" cy="20.59" r="3.43"/></g><g><g><line class="st50" x1="29.04" y1="17.16" x2="26.93" y2="17.16"/><line class="st50" x1="64.39" y1="17.16" x2="62.28" y2="17.16"/></g><g><line class="st50" x1="33.91" y1="5.41" x2="32.41" y2="3.91"/><line class="st50" x1="58.91" y1="30.41" x2="57.41" y2="28.91"/></g><g><line class="st50" x1="33.91" y1="28.91" x2="32.41" y2="30.41"/><line class="st50" x1="58.91" y1="3.91" x2="57.41" y2="5.41"/></g></g><line class="st50" x1="44.9" y1="3.91" x2="44.9" y2="1.82"/></g></g><g id="Layer_4"/></svg>