<?xml version="1.0" ?><svg xmlns="http://www.w3.org/2000/svg" xmlns:xlink="http://www.w3.org/1999/xlink" version="1.1" viewBox="0 0 94 94" style="enable-background:new 0 0 94 94;" xml:space="preserve"><style type="text/css">
	.st0{display:none;}
	.st1{display:inline;fill:#FEA900;}
	.st2{display:inline;}
	.st3{display:inline;fill:#F9CD6C;}
	.st4{display:inline;fill:none;stroke:#000000;stroke-width:0.25;stroke-miterlimit:10;}
	.st5{stroke:#000000;stroke-linecap:round;stroke-linejoin:round;stroke-miterlimit:10;}
	.st6{opacity:0.2;stroke:#000000;stroke-linecap:round;stroke-linejoin:round;stroke-miterlimit:10;}
	.st7{fill:#F12A00;stroke:#000000;stroke-linecap:round;stroke-linejoin:round;stroke-miterlimit:10;}
	.st8{fill:#FBECCF;stroke:#000000;stroke-linecap:round;stroke-linejoin:round;stroke-miterlimit:10;}
	.st9{opacity:0.2;fill:#F12A00;}
	.st10{fill:#F7C86C;stroke:#000000;stroke-linecap:round;stroke-linejoin:round;stroke-miterlimit:10;}
	.st11{fill:none;stroke:#000000;stroke-linecap:round;stroke-linejoin:round;stroke-miterlimit:10;}
	.st12{display:inline;stroke:#000000;stroke-linecap:round;stroke-linejoin:round;stroke-miterlimit:10;}
	.st13{fill:#FAAC01;stroke:#000000;stroke-linecap:round;stroke-linejoin:round;stroke-miterlimit:10;}
	.st14{fill:#FAAC01;}
	.st15{display:inline;fill:#FAEBCE;stroke:#000000;stroke-width:0.25;stroke-miterlimit:10;}
	.st16{display:inline;fill:none;stroke:#000000;stroke-width:1.0164;stroke-miterlimit:10;}
	.st17{display:inline;fill:#FAEBCE;stroke:#000000;stroke-width:1.0164;stroke-miterlimit:10;}
	.st18{fill:#FEA900;}
	.st19{fill:#F9CD6C;}
	.st20{fill:none;stroke:#000000;stroke-width:1.0164;stroke-miterlimit:10;}
	.st21{fill:#FAEBCE;stroke:#000000;stroke-width:1.0164;stroke-miterlimit:10;}
	.st22{display:inline;fill:#FAEBCE;}
	.st23{fill:#008FF5;stroke:#000000;stroke-linecap:round;stroke-linejoin:round;stroke-miterlimit:10;}
	.st24{fill:#D0E6FB;stroke:#000000;stroke-linecap:round;stroke-linejoin:round;stroke-miterlimit:10;}
	.st25{fill:#FFFFFF;stroke:#000000;stroke-linecap:round;stroke-linejoin:round;stroke-miterlimit:10;}
	.st26{fill:#75D95D;stroke:#000000;stroke-linecap:round;stroke-linejoin:round;stroke-miterlimit:10;}
	.st27{fill:#CAF3BB;}
	.st28{fill:#FFFFFF;}
	.st29{fill:#CAF3BB;stroke:#000000;stroke-linecap:round;stroke-linejoin:round;stroke-miterlimit:10;}
	.st30{display:inline;fill:#D0E6FB;stroke:#000000;stroke-linecap:round;stroke-linejoin:round;stroke-miterlimit:10;}
	.st31{stroke:#FFFFFF;stroke-linecap:round;stroke-linejoin:round;stroke-miterlimit:10;}
	.st32{fill:#B4B2FB;stroke:#000000;stroke-linecap:round;stroke-linejoin:round;stroke-miterlimit:10;}
	.st33{fill:#018BEE;}
	.st34{display:inline;fill:none;stroke:#000000;stroke-linecap:round;stroke-linejoin:round;stroke-miterlimit:10;}
	.st35{fill:#75D95D;}
	.st36{fill:#4949F7;stroke:#000000;stroke-linecap:round;stroke-linejoin:round;stroke-miterlimit:10;}
	.st37{fill:#D0E6FB;}
	.st38{fill:#6FBBF7;stroke:#000000;stroke-linecap:round;stroke-linejoin:round;stroke-miterlimit:10;}
	.st39{fill:#018BEE;stroke:#000000;stroke-linecap:round;stroke-linejoin:round;stroke-miterlimit:10;}
	.st40{fill:#B4B2FB;}
	.st41{fill:#E8E9FE;}
	.st42{fill:#B4B2FB;stroke:#000F24;stroke-miterlimit:10;}
	.st43{stroke:#000000;stroke-miterlimit:10;}
	.st44{fill:#E8E9FE;stroke:#000000;stroke-linecap:round;stroke-linejoin:round;stroke-miterlimit:10;}
	.st45{opacity:0.3;fill:#018BEE;}
	.st46{fill:#6FBBF7;}
	.st47{fill:#FAAC01;stroke:#FFFFFF;stroke-linecap:round;stroke-linejoin:round;stroke-miterlimit:10;}
	.st48{fill:#006A2F;}
	.st49{opacity:0.1;}
	.st50{fill:#FCD4CA;stroke:#000000;stroke-linecap:round;stroke-linejoin:round;stroke-miterlimit:10;}
	.st51{fill:#006A2F;stroke:#000000;stroke-linecap:round;stroke-linejoin:round;stroke-miterlimit:10;}
	.st52{fill:#4949F7;}
	.st53{fill:#F12A00;}
	.st54{fill:#D0E6FB;stroke:#018BEE;stroke-linecap:round;stroke-linejoin:round;stroke-miterlimit:10;}
	.st55{fill:#9CD7FF;}
	.st56{fill:#F7C86C;}
	.st57{opacity:0.3;stroke:#000000;stroke-linecap:round;stroke-linejoin:round;stroke-miterlimit:10;}
	.st58{opacity:0.1;stroke:#000000;stroke-linecap:round;stroke-linejoin:round;stroke-miterlimit:10;}
	.st59{opacity:0.3;fill:#006A2F;}
	.st60{stroke:#000000;stroke-width:1.0825;stroke-linecap:round;stroke-linejoin:round;stroke-miterlimit:10;}
	.st61{fill:#D0E6FB;stroke:#000000;stroke-width:1.0825;stroke-linecap:round;stroke-linejoin:round;stroke-miterlimit:10;}
	.st62{fill:#6FBBF7;stroke:#000000;stroke-width:1.0825;stroke-linecap:round;stroke-linejoin:round;stroke-miterlimit:10;}
	.st63{fill:none;stroke:#000000;stroke-width:1.0825;stroke-linecap:round;stroke-linejoin:round;stroke-miterlimit:10;}
	.st64{fill:#CAF3BB;stroke:#000000;stroke-width:0.7876;stroke-linecap:round;stroke-linejoin:round;stroke-miterlimit:10;}
	.st65{fill:#6FBBF7;stroke:#FFFFFF;stroke-linecap:round;stroke-linejoin:round;stroke-miterlimit:10;}
	.st66{opacity:0.2;}
	.st67{stroke:#E8E9FE;stroke-linecap:round;stroke-linejoin:round;stroke-miterlimit:10;}
	.st68{fill:#FCD4CA;}
	.st69{fill:#FBECCF;}
	.st70{opacity:0.1;fill:#F12A00;}
	.st71{opacity:0.5;stroke:#000000;stroke-linecap:round;stroke-linejoin:round;stroke-miterlimit:10;}
	.st72{fill:#6FBBF7;stroke:#E8E9FE;stroke-linecap:round;stroke-linejoin:round;stroke-miterlimit:10;}
	.st73{opacity:0.5;fill:#D0E6FB;}
	.st74{fill:#70BAF7;}
	.st75{fill:none;stroke:#FFFFFF;stroke-linecap:round;stroke-linejoin:round;stroke-miterlimit:10;}
	.st76{fill:#70BAF7;stroke:#70BAF7;stroke-linecap:round;stroke-linejoin:round;stroke-miterlimit:10;}
	.st77{fill:#018BEE;stroke:#018BEE;stroke-linecap:round;stroke-linejoin:round;stroke-miterlimit:10;}
	.st78{fill:#70BAF7;stroke:#000000;stroke-linecap:round;stroke-linejoin:round;stroke-miterlimit:10;}
	.st79{fill:#F9CD6C;stroke:#000000;stroke-linecap:round;stroke-linejoin:round;stroke-miterlimit:10;}
	.st80{fill:none;}
	.st81{fill:#006A2F;stroke:#006A2F;stroke-miterlimit:10;}
	.st82{fill:#B4DFFC;}
	.st83{fill:#6FBBF7;stroke:#018BEE;stroke-linecap:round;stroke-linejoin:round;stroke-miterlimit:10;}
	.st84{fill:none;stroke:#FBECCF;stroke-linecap:round;stroke-linejoin:round;stroke-miterlimit:10;}
	.st85{fill:none;stroke:#018BEE;stroke-linecap:round;stroke-linejoin:round;stroke-miterlimit:10;}
	.st86{fill:#010101;stroke:#FFFFFF;stroke-linecap:round;stroke-linejoin:round;stroke-miterlimit:10;}
	.st87{fill:#010101;stroke:#000000;stroke-linecap:round;stroke-linejoin:round;stroke-miterlimit:10;}
	.st88{fill:#75D95D;stroke:#FFFFFF;stroke-linecap:round;stroke-linejoin:round;stroke-miterlimit:10;}
	.st89{fill:#94F279;stroke:#000000;stroke-linecap:round;stroke-linejoin:round;stroke-miterlimit:10;}
	.st90{fill:#8C8CF9;}
	.st91{fill:#008FF5;}
	.st92{fill:#8CD8F9;}
	.st93{fill:#FFC043;}
	.st94{fill:#94F279;}
	.st95{fill:#FF3D1D;}
	.st96{fill:#31B1FF;}
	.st97{fill:#FFCF7B;}
	.st98{fill:#B2FF99;}
	.st99{fill:#D7D7FF;}
	.st100{fill:#FF7C6E;}
	.st101{fill:#5CC9FF;}
	.st102{fill:#F12A00;stroke:#FFFFFF;stroke-linecap:round;stroke-linejoin:round;stroke-miterlimit:10;}
	.st103{fill:#F7C86C;stroke:#000000;stroke-width:1.0164;stroke-miterlimit:10;}
</style><g id="Refrences" class="st0"/><g id="Tittle"/><g id="Icons"><g><path class="st5" d="M81.98,46.47L53.45,32.11c-4.06-2.04-8.85-2.04-12.91,0L12.02,46.47c-3.15,1.59-3.15,6.09,0,7.68l28.53,14.36    c4.06,2.04,8.85,2.04,12.91,0l28.53-14.36C85.13,52.56,85.13,48.06,81.98,46.47z"/><path class="st11" d="M84.34,50.36v34.43c0,2.15-0.92,4.05-2.39,5.38c-1.28,1.14-2.98,1.83-4.8,1.83H16.85    c-1.72,0-3.27-0.58-4.5-1.59c-1.64-1.31-2.69-3.34-2.69-5.62V50.36c0.01,1.51,0.8,3.02,2.37,3.79L40.54,68.5    c4.06,2.05,8.85,2.05,12.92,0l28.52-14.36C83.54,53.37,84.33,51.87,84.34,50.36z"/><g><path class="st5" d="M69.87,84.98l-57.03-9.3L24.06,6.86c0.52-3.16,3.49-5.3,6.65-4.78l45.6,7.44c3.16,0.52,5.3,3.49,4.78,6.65     L69.87,84.98z"/><path class="st44" d="M72.04,85.41l-57.03-9.3L26.23,7.29c0.52-3.16,3.49-5.3,6.65-4.78l45.6,7.44c3.16,0.52,5.3,3.49,4.78,6.65     L72.04,85.41z"/><g><path class="st5" d="M50.69,41.93c8.21,1.67,16.25-3.66,17.92-11.87c1.67-8.21-3.66-16.25-11.87-17.92l-2.76-0.56l-6.04,29.79      L50.69,41.93z"/><path class="st13" d="M47.93,41.37c-8.21-1.67-13.54-9.7-11.87-17.91c1.67-8.21,9.7-13.54,17.92-11.87s13.54,9.7,11.87,17.92      C64.18,37.71,56.14,43.04,47.93,41.37z"/><circle class="st5" cx="50.95" cy="26.48" r="11.36"/><path class="st10" d="M62.09,28.73c-1.19,5.86-6.67,9.73-12.49,9.02c-5.64-1.62-9.17-7.32-7.98-13.18      c1.19-5.84,6.67-9.72,12.49-9.01C59.74,17.19,63.28,22.89,62.09,28.73z"/><g><path class="st11" d="M47.16,29c-0.35,1.74,0.77,3.44,2.52,3.8c1.74,0.35,3.44-0.77,3.8-2.52c0.35-1.74-0.77-3.44-2.52-3.8       s-2.87-2.05-2.52-3.8c0.35-1.74,2.05-2.87,3.8-2.52c1.74,0.35,2.87,2.05,2.52,3.8"/><line class="st25" x1="52.23" y1="20.17" x2="52.46" y2="19.06"/><line class="st25" x1="49.45" y1="33.9" x2="49.67" y2="32.79"/></g></g><path class="st40" d="M63.03,52.44l-37.01-6.04c-1.04-0.17-1.75-1.15-1.58-2.19v0c0.17-1.04,1.15-1.75,2.19-1.58l37.01,6.04     c1.04,0.17,1.75,1.15,1.58,2.19v0C65.05,51.91,64.07,52.61,63.03,52.44z"/><path class="st46" d="M49.23,58.5l-24.85-4.05c-0.86-0.14-1.45-0.95-1.3-1.81l0.11-0.65c0.14-0.86,0.95-1.45,1.81-1.3l24.85,4.05     c0.86,0.14,1.45,0.95,1.3,1.81l-0.11,0.65C50.9,58.06,50.09,58.65,49.23,58.5z"/></g><path class="st10" d="M84.34,50.36v34.43c0,2.15-0.92,4.05-2.39,5.38c-1.28,1.14-2.98,1.83-4.8,1.83H16.85    c-1.72,0-3.27-0.58-4.5-1.59c-1.64-1.31-2.69-3.34-2.69-5.62V50.36c0.01,1.51,0.8,3.02,2.37,3.79L40.54,68.5    c4.06,2.05,8.85,2.05,12.92,0l28.52-14.36C83.54,53.37,84.33,51.87,84.34,50.36z"/><path class="st14" d="M83.65,87.89c-0.41,0.87-1,1.64-1.71,2.28C80.66,91.31,78.97,92,77.15,92H16.85c-1.71,0-3.28-0.59-4.5-1.6    c-0.73-0.59-1.35-1.32-1.8-2.15l23.18-23.18l6.82,3.44c4.08,2.05,8.86,2.05,12.92,0l7.19-3.61L83.65,87.89z"/><path class="st11" d="M84.34,50.36v34.43c0,2.15-0.92,4.05-2.39,5.38c-1.28,1.14-2.98,1.83-4.8,1.83H16.85    c-1.72,0-3.27-0.58-4.5-1.59c-1.64-1.31-2.69-3.34-2.69-5.62V50.36c0.01,1.51,0.8,3.02,2.37,3.79L40.54,68.5    c4.06,2.05,8.85,2.05,12.92,0l28.52-14.36C83.54,53.37,84.33,51.87,84.34,50.36z"/><path class="st13" d="M81.94,90.17c-1.28,1.15-2.97,1.83-4.8,1.83h-60.3c-1.71,0-3.27-0.58-4.5-1.59l25.68-25.68    c5.1-5.11,13.38-5.11,18.47,0L81.94,90.17z"/><line class="st47" x1="35.89" y1="70.9" x2="17.65" y2="89.14"/></g></g><g id="Layer_4"/></svg>