<?xml version="1.0" ?><svg xmlns="http://www.w3.org/2000/svg" xmlns:xlink="http://www.w3.org/1999/xlink" version="1.1" viewBox="0 0 94 94" style="enable-background:new 0 0 94 94;" xml:space="preserve"><style type="text/css">
	.st0{display:none;}
	.st1{display:inline;fill:#FEA900;}
	.st2{display:inline;}
	.st3{display:inline;fill:#F9CD6C;}
	.st4{display:inline;fill:none;stroke:#000000;stroke-width:0.25;stroke-miterlimit:10;}
	.st5{stroke:#000000;stroke-linecap:round;stroke-linejoin:round;stroke-miterlimit:10;}
	.st6{opacity:0.2;stroke:#000000;stroke-linecap:round;stroke-linejoin:round;stroke-miterlimit:10;}
	.st7{fill:#F12A00;stroke:#000000;stroke-linecap:round;stroke-linejoin:round;stroke-miterlimit:10;}
	.st8{fill:#FBECCF;stroke:#000000;stroke-linecap:round;stroke-linejoin:round;stroke-miterlimit:10;}
	.st9{opacity:0.2;fill:#F12A00;}
	.st10{fill:#F7C86C;stroke:#000000;stroke-linecap:round;stroke-linejoin:round;stroke-miterlimit:10;}
	.st11{fill:none;stroke:#000000;stroke-linecap:round;stroke-linejoin:round;stroke-miterlimit:10;}
	.st12{display:inline;stroke:#000000;stroke-linecap:round;stroke-linejoin:round;stroke-miterlimit:10;}
	.st13{fill:#FAAC01;stroke:#000000;stroke-linecap:round;stroke-linejoin:round;stroke-miterlimit:10;}
	.st14{fill:#FAAC01;}
	.st15{display:inline;fill:#FAEBCE;stroke:#000000;stroke-width:0.25;stroke-miterlimit:10;}
	.st16{display:inline;fill:none;stroke:#000000;stroke-width:1.0164;stroke-miterlimit:10;}
	.st17{display:inline;fill:#FAEBCE;stroke:#000000;stroke-width:1.0164;stroke-miterlimit:10;}
	.st18{fill:#FEA900;}
	.st19{fill:#F9CD6C;}
	.st20{fill:none;stroke:#000000;stroke-width:1.0164;stroke-miterlimit:10;}
	.st21{fill:#FAEBCE;stroke:#000000;stroke-width:1.0164;stroke-miterlimit:10;}
	.st22{display:inline;fill:#FAEBCE;}
	.st23{fill:#008FF5;stroke:#000000;stroke-linecap:round;stroke-linejoin:round;stroke-miterlimit:10;}
	.st24{fill:#D0E6FB;stroke:#000000;stroke-linecap:round;stroke-linejoin:round;stroke-miterlimit:10;}
	.st25{fill:#FFFFFF;stroke:#000000;stroke-linecap:round;stroke-linejoin:round;stroke-miterlimit:10;}
	.st26{fill:#75D95D;stroke:#000000;stroke-linecap:round;stroke-linejoin:round;stroke-miterlimit:10;}
	.st27{fill:#CAF3BB;}
	.st28{fill:#FFFFFF;}
	.st29{fill:#CAF3BB;stroke:#000000;stroke-linecap:round;stroke-linejoin:round;stroke-miterlimit:10;}
	.st30{display:inline;fill:#D0E6FB;stroke:#000000;stroke-linecap:round;stroke-linejoin:round;stroke-miterlimit:10;}
	.st31{stroke:#FFFFFF;stroke-linecap:round;stroke-linejoin:round;stroke-miterlimit:10;}
	.st32{fill:#B4B2FB;stroke:#000000;stroke-linecap:round;stroke-linejoin:round;stroke-miterlimit:10;}
	.st33{fill:#018BEE;}
	.st34{display:inline;fill:none;stroke:#000000;stroke-linecap:round;stroke-linejoin:round;stroke-miterlimit:10;}
	.st35{fill:#75D95D;}
	.st36{fill:#4949F7;stroke:#000000;stroke-linecap:round;stroke-linejoin:round;stroke-miterlimit:10;}
	.st37{fill:#D0E6FB;}
	.st38{fill:#6FBBF7;stroke:#000000;stroke-linecap:round;stroke-linejoin:round;stroke-miterlimit:10;}
	.st39{fill:#018BEE;stroke:#000000;stroke-linecap:round;stroke-linejoin:round;stroke-miterlimit:10;}
	.st40{fill:#B4B2FB;}
	.st41{fill:#E8E9FE;}
	.st42{fill:#B4B2FB;stroke:#000F24;stroke-miterlimit:10;}
	.st43{stroke:#000000;stroke-miterlimit:10;}
	.st44{fill:#E8E9FE;stroke:#000000;stroke-linecap:round;stroke-linejoin:round;stroke-miterlimit:10;}
	.st45{opacity:0.3;fill:#018BEE;}
	.st46{fill:#6FBBF7;}
	.st47{fill:#FAAC01;stroke:#FFFFFF;stroke-linecap:round;stroke-linejoin:round;stroke-miterlimit:10;}
	.st48{fill:#006A2F;}
	.st49{opacity:0.1;}
	.st50{fill:#FCD4CA;stroke:#000000;stroke-linecap:round;stroke-linejoin:round;stroke-miterlimit:10;}
	.st51{fill:#006A2F;stroke:#000000;stroke-linecap:round;stroke-linejoin:round;stroke-miterlimit:10;}
	.st52{fill:#4949F7;}
	.st53{fill:#F12A00;}
	.st54{fill:#D0E6FB;stroke:#018BEE;stroke-linecap:round;stroke-linejoin:round;stroke-miterlimit:10;}
	.st55{fill:#9CD7FF;}
	.st56{fill:#F7C86C;}
	.st57{opacity:0.3;stroke:#000000;stroke-linecap:round;stroke-linejoin:round;stroke-miterlimit:10;}
	.st58{opacity:0.1;stroke:#000000;stroke-linecap:round;stroke-linejoin:round;stroke-miterlimit:10;}
	.st59{opacity:0.3;fill:#006A2F;}
	.st60{stroke:#000000;stroke-width:1.0825;stroke-linecap:round;stroke-linejoin:round;stroke-miterlimit:10;}
	.st61{fill:#D0E6FB;stroke:#000000;stroke-width:1.0825;stroke-linecap:round;stroke-linejoin:round;stroke-miterlimit:10;}
	.st62{fill:#6FBBF7;stroke:#000000;stroke-width:1.0825;stroke-linecap:round;stroke-linejoin:round;stroke-miterlimit:10;}
	.st63{fill:none;stroke:#000000;stroke-width:1.0825;stroke-linecap:round;stroke-linejoin:round;stroke-miterlimit:10;}
	.st64{fill:#CAF3BB;stroke:#000000;stroke-width:0.7876;stroke-linecap:round;stroke-linejoin:round;stroke-miterlimit:10;}
	.st65{fill:#6FBBF7;stroke:#FFFFFF;stroke-linecap:round;stroke-linejoin:round;stroke-miterlimit:10;}
	.st66{opacity:0.2;}
	.st67{stroke:#E8E9FE;stroke-linecap:round;stroke-linejoin:round;stroke-miterlimit:10;}
	.st68{fill:#FCD4CA;}
	.st69{fill:#FBECCF;}
	.st70{opacity:0.1;fill:#F12A00;}
	.st71{opacity:0.5;stroke:#000000;stroke-linecap:round;stroke-linejoin:round;stroke-miterlimit:10;}
	.st72{fill:#6FBBF7;stroke:#E8E9FE;stroke-linecap:round;stroke-linejoin:round;stroke-miterlimit:10;}
	.st73{opacity:0.5;fill:#D0E6FB;}
	.st74{fill:#70BAF7;}
	.st75{fill:none;stroke:#FFFFFF;stroke-linecap:round;stroke-linejoin:round;stroke-miterlimit:10;}
	.st76{fill:#70BAF7;stroke:#70BAF7;stroke-linecap:round;stroke-linejoin:round;stroke-miterlimit:10;}
	.st77{fill:#018BEE;stroke:#018BEE;stroke-linecap:round;stroke-linejoin:round;stroke-miterlimit:10;}
	.st78{fill:#70BAF7;stroke:#000000;stroke-linecap:round;stroke-linejoin:round;stroke-miterlimit:10;}
	.st79{fill:#F9CD6C;stroke:#000000;stroke-linecap:round;stroke-linejoin:round;stroke-miterlimit:10;}
	.st80{fill:none;}
	.st81{fill:#006A2F;stroke:#006A2F;stroke-miterlimit:10;}
	.st82{fill:#B4DFFC;}
	.st83{fill:#6FBBF7;stroke:#018BEE;stroke-linecap:round;stroke-linejoin:round;stroke-miterlimit:10;}
	.st84{fill:none;stroke:#FBECCF;stroke-linecap:round;stroke-linejoin:round;stroke-miterlimit:10;}
	.st85{fill:none;stroke:#018BEE;stroke-linecap:round;stroke-linejoin:round;stroke-miterlimit:10;}
	.st86{fill:#010101;stroke:#FFFFFF;stroke-linecap:round;stroke-linejoin:round;stroke-miterlimit:10;}
	.st87{fill:#010101;stroke:#000000;stroke-linecap:round;stroke-linejoin:round;stroke-miterlimit:10;}
	.st88{fill:#75D95D;stroke:#FFFFFF;stroke-linecap:round;stroke-linejoin:round;stroke-miterlimit:10;}
	.st89{fill:#94F279;stroke:#000000;stroke-linecap:round;stroke-linejoin:round;stroke-miterlimit:10;}
	.st90{fill:#8C8CF9;}
	.st91{fill:#008FF5;}
	.st92{fill:#8CD8F9;}
	.st93{fill:#FFC043;}
	.st94{fill:#94F279;}
	.st95{fill:#FF3D1D;}
	.st96{fill:#31B1FF;}
	.st97{fill:#FFCF7B;}
	.st98{fill:#B2FF99;}
	.st99{fill:#D7D7FF;}
	.st100{fill:#FF7C6E;}
	.st101{fill:#5CC9FF;}
	.st102{fill:#F12A00;stroke:#FFFFFF;stroke-linecap:round;stroke-linejoin:round;stroke-miterlimit:10;}
	.st103{fill:#F7C86C;stroke:#000000;stroke-width:1.0164;stroke-miterlimit:10;}
</style><g id="Refrences" class="st0"/><g id="Tittle"/><g id="Icons"><g><g><path class="st5" d="M56.93,15.62V2H16.76c-3.22,0-5.83,2.61-5.83,5.83v78.34c0,3.22,2.61,5.83,5.83,5.83h50.7     c3.22,0,5.83-2.61,5.83-5.83V17.45H62.76C59.54,17.45,56.93,18.84,56.93,15.62z"/><path class="st37" d="M61.93,11.62V2H21.76c-3.22,0-5.83,2.61-5.83,5.83v78.34c0,3.22,2.61,5.83,5.83,5.83h50.7     c3.22,0,5.83-2.61,5.83-5.83V17.45H67.76C64.54,17.45,61.93,14.84,61.93,11.62z"/><path class="st74" d="M54.41,51.59C50.4,37.57,38.23,28.7,27.28,31.83c0,0,0,0-0.01,0l-9.01,2.58c-0.05,0.01-0.09,0.04-0.13,0.06     c-0.76,0.25-1.49,0.57-2.2,0.92v45.27c3.88,3.22,8.4,5.08,12.93,5.08c1.51,0,3.02-0.2,4.51-0.63l8.4-2.4     c0.02,0,0.03-0.01,0.05-0.01C52.77,79.57,58.42,65.62,54.41,51.59z"/><path class="st74" d="M63.8,6.29v8.37c0,2.92,2.37,5.29,5.29,5.29h9.2v-2.5L63.8,6.29z"/><path class="st11" d="M61.93,11.62V2H21.76c-3.22,0-5.83,2.61-5.83,5.83v78.34c0,3.22,2.61,5.83,5.83,5.83h50.7     c3.22,0,5.83-2.61,5.83-5.83V17.45H67.76C64.54,17.45,61.93,14.84,61.93,11.62z"/><path class="st25" d="M61.93,2v9.62c0,3.22,2.61,5.83,5.83,5.83H78.3L61.93,2z"/><path class="st26" d="M43.76,51.25c2.83,9.88,0.81,19.7-4.51,25.58l0.71,2.5l-8.45,2.42C20.81,84.8,8.94,76.11,5,62.33     C1.13,48.79,6.35,35.37,16.69,32.01l-0.01-0.02l9.01-2.58l0.71,2.5C34.03,34.1,40.93,41.36,43.76,51.25z"/><path d="M15.7,78.33c4.8,3.52,10.46,4.94,15.82,3.4l8.45-2.42l-0.71-2.5c1.61-1.78,2.92-3.94,3.88-6.34L15.7,78.33z"/><path class="st27" d="M37.43,39.34c-3.14-3.66-6.98-6.27-11.03-7.43l-0.71-2.5l-9.01,2.58l0.01,0.02     C9.89,34.22,5.3,40.79,4.06,48.88L37.43,39.34z"/><path class="st11" d="M43.76,51.25c2.83,9.88,0.81,19.7-4.51,25.58l0.71,2.5l-8.45,2.42C20.81,84.8,8.94,76.11,5,62.33     C1.13,48.79,6.35,35.37,16.69,32.01l-0.01-0.02l9.01-2.58l0.71,2.5C34.03,34.1,40.93,41.36,43.76,51.25z"/><path class="st75" d="M6.12,53.95c0.12,2.63,0.57,5.34,1.4,8.05c1.09,3.58,2.73,6.8,4.72,9.55"/><ellipse transform="matrix(0.9615 -0.275 0.275 0.9615 -13.6831 11.1222)" class="st26" cx="32.83" cy="54.37" rx="20.16" ry="25.96"/><ellipse transform="matrix(0.9615 -0.275 0.275 0.9615 -13.6831 11.1222)" class="st28" cx="32.83" cy="54.37" rx="16.69" ry="21.49"/><path class="st27" d="M49.3,62.72c0.58-3.55,0.38-7.46-0.74-11.38C45.3,39.93,35.47,32.73,26.61,35.26     c-5.36,1.53-9.15,6.27-10.56,12.31c1.11-6.77,5.06-12.21,10.88-13.87c8.86-2.53,18.69,4.66,21.96,16.08     C50.17,54.29,50.24,58.79,49.3,62.72z"/><ellipse transform="matrix(0.9615 -0.275 0.275 0.9615 -13.6831 11.1222)" class="st11" cx="32.83" cy="54.37" rx="16.69" ry="21.49"/><ellipse transform="matrix(0.9615 -0.275 0.275 0.9615 -13.6831 11.1222)" class="st11" cx="32.83" cy="54.37" rx="16.69" ry="21.49"/><line class="st25" x1="27.72" y1="36.49" x2="28.18" y2="38.12"/><line class="st25" x1="37.48" y1="70.62" x2="37.94" y2="72.25"/><line class="st25" x1="46.72" y1="50.4" x2="45.45" y2="50.76"/><line class="st25" x1="20.21" y1="57.98" x2="18.94" y2="58.34"/><line class="st25" x1="23.36" y1="66.75" x2="24.22" y2="65.62"/><line class="st25" x1="41.44" y1="43.12" x2="42.3" y2="41.99"/><line class="st25" x1="21.46" y1="40.87" x2="22.49" y2="42.1"/><line class="st25" x1="43.17" y1="66.64" x2="44.2" y2="67.87"/><line class="st25" x1="47.41" y1="59.87" x2="46.08" y2="59.37"/><line class="st25" x1="19.58" y1="49.37" x2="18.25" y2="48.87"/><line class="st25" x1="30.32" y1="71.84" x2="30.55" y2="70.25"/><line class="st25" x1="35.12" y1="38.49" x2="35.35" y2="36.9"/><path class="st29" d="M33.87,54.07l-2.09,0.6L28.85,44.4c-0.16-0.58,0.17-1.18,0.75-1.34h0c0.58-0.16,1.18,0.17,1.34,0.75     L33.87,54.07z"/><path class="st29" d="M32.93,53.39l10.21,7.48c0.4,0.29,0.58,0.91,0.39,1.37l0,0c-0.19,0.46-0.66,0.6-1.06,0.3l-10.21-7.48"/><ellipse transform="matrix(0.9615 -0.275 0.275 0.9615 -13.6831 11.1222)" class="st5" cx="32.83" cy="54.37" rx="2.16" ry="2.78"/><path class="st26" d="M43.76,51.25c2.83,9.88,0.81,19.7-4.51,25.58l0.71,2.5l-8.45,2.42C20.81,84.8,8.94,76.11,5,62.33     C1.13,48.79,6.35,35.37,16.69,32.01l-0.01-0.02l9.01-2.58l0.71,2.5C34.03,34.1,40.93,41.36,43.76,51.25z"/><path d="M15.7,78.33c4.8,3.52,10.46,4.94,15.82,3.4l8.45-2.42l-0.71-2.5c1.61-1.78,2.92-3.94,3.88-6.34L15.7,78.33z"/><path class="st27" d="M37.43,39.34c-3.14-3.66-6.98-6.27-11.03-7.43l-0.71-2.5l-9.01,2.58l0.01,0.02     C9.89,34.22,5.3,40.79,4.06,48.88L37.43,39.34z"/><path class="st11" d="M43.76,51.25c2.83,9.88,0.81,19.7-4.51,25.58l0.71,2.5l-8.45,2.42C20.81,84.8,8.94,76.11,5,62.33     C1.13,48.79,6.35,35.37,16.69,32.01l-0.01-0.02l9.01-2.58l0.71,2.5C34.03,34.1,40.93,41.36,43.76,51.25z"/><path class="st75" d="M6.12,53.95c0.12,2.63,0.57,5.34,1.4,8.05c1.09,3.58,2.73,6.8,4.72,9.55"/><ellipse transform="matrix(0.9615 -0.275 0.275 0.9615 -13.6831 11.1222)" class="st26" cx="32.83" cy="54.37" rx="20.16" ry="25.96"/><ellipse transform="matrix(0.9615 -0.275 0.275 0.9615 -13.6831 11.1222)" class="st28" cx="32.83" cy="54.37" rx="16.69" ry="21.49"/><path class="st27" d="M49.3,62.72c0.58-3.55,0.38-7.46-0.74-11.38C45.3,39.93,35.47,32.73,26.61,35.26     c-5.36,1.53-9.15,6.27-10.56,12.31c1.11-6.77,5.06-12.21,10.88-13.87c8.86-2.53,18.69,4.66,21.96,16.08     C50.17,54.29,50.24,58.79,49.3,62.72z"/><ellipse transform="matrix(0.9615 -0.275 0.275 0.9615 -13.6831 11.1222)" class="st11" cx="32.83" cy="54.37" rx="16.69" ry="21.49"/><ellipse transform="matrix(0.9615 -0.275 0.275 0.9615 -13.6831 11.1222)" class="st11" cx="32.83" cy="54.37" rx="16.69" ry="21.49"/><line class="st25" x1="27.72" y1="36.49" x2="28.18" y2="38.12"/><line class="st25" x1="37.48" y1="70.62" x2="37.94" y2="72.25"/><line class="st25" x1="46.72" y1="50.4" x2="45.45" y2="50.76"/><line class="st25" x1="20.21" y1="57.98" x2="18.94" y2="58.34"/><line class="st25" x1="23.36" y1="66.75" x2="24.22" y2="65.62"/><line class="st25" x1="41.44" y1="43.12" x2="42.3" y2="41.99"/><line class="st25" x1="21.46" y1="40.87" x2="22.49" y2="42.1"/><line class="st25" x1="43.17" y1="66.64" x2="44.2" y2="67.87"/><line class="st25" x1="47.41" y1="59.87" x2="46.08" y2="59.37"/><line class="st25" x1="19.58" y1="49.37" x2="18.25" y2="48.87"/><line class="st25" x1="30.32" y1="71.84" x2="30.55" y2="70.25"/><line class="st25" x1="35.12" y1="38.49" x2="35.35" y2="36.9"/><path class="st29" d="M33.87,54.07l-2.09,0.6L28.85,44.4c-0.16-0.58,0.17-1.18,0.75-1.34h0c0.58-0.16,1.18,0.17,1.34,0.75     L33.87,54.07z"/><path class="st29" d="M32.93,53.39l10.21,7.48c0.4,0.29,0.58,0.91,0.39,1.37l0,0c-0.19,0.46-0.66,0.6-1.06,0.3l-10.21-7.48"/><ellipse transform="matrix(0.9615 -0.275 0.275 0.9615 -13.6831 11.1222)" class="st5" cx="32.83" cy="54.37" rx="2.16" ry="2.78"/><path class="st76" d="M52.6,13.67H26.14c-0.92,0-1.67-0.75-1.67-1.67v0c0-0.92,0.75-1.67,1.67-1.67H52.6     c0.92,0,1.67,0.75,1.67,1.67v0C54.27,12.93,53.52,13.67,52.6,13.67z"/><path class="st76" d="M43.58,21.53H26.14c-0.92,0-1.67-0.75-1.67-1.67v0c0-0.92,0.75-1.67,1.67-1.67h17.44     c0.92,0,1.67,0.75,1.67,1.67v0C45.25,20.78,44.5,21.53,43.58,21.53z"/></g><g><path class="st18" d="M85.23,50.08C79.17,57.57,70,60.22,64.76,55.97L61,52.93c5.24,4.24,14.41,1.59,20.47-5.89     c6.08-7.51,6.76-17.03,1.53-21.27l3.76,3.05C91.99,33.05,91.31,42.57,85.23,50.08z"/><path d="M75.63,52.23c-5.18,3.23-10.9,3.72-14.63,0.7l3.76,3.05c3.73,3.02,9.46,2.53,14.63-0.7L75.63,52.23z"/><path class="st19" d="M86.14,37.48l3.76,3.05c0.99-4.75-0.01-9.18-3.14-11.72l-3.76-3.05C86.13,28.3,87.13,32.73,86.14,37.48z"/><path class="st20" d="M85.23,50.08C79.17,57.57,70,60.22,64.76,55.97L61,52.93c5.24,4.24,14.41,1.59,20.47-5.89     c6.08-7.51,6.76-17.03,1.53-21.27l3.76,3.05C91.99,33.05,91.31,42.57,85.23,50.08z"/><ellipse transform="matrix(0.6293 -0.7771 0.7771 0.6293 -3.8916 70.5311)" class="st21" cx="71.99" cy="39.35" rx="17.48" ry="12.19"/><ellipse transform="matrix(0.6293 -0.7771 0.7771 0.6293 -3.8916 70.5311)" class="st19" cx="71.99" cy="39.35" rx="13.98" ry="9.75"/><path class="st18" d="M79.56,45.49c-2.88,3.56-6.62,5.75-10.05,6.22c2.43-1.03,4.82-2.85,6.8-5.29c4.88-6.02,5.42-13.62,1.24-17     c-1.72-1.39-3.97-1.86-6.37-1.48c3.52-1.55,7.13-1.48,9.63,0.54C84.98,31.87,84.43,39.47,79.56,45.49z"/><ellipse transform="matrix(0.6293 -0.7771 0.7771 0.6293 -3.8916 70.5311)" class="st20" cx="71.99" cy="39.35" rx="13.98" ry="9.75"/><g><path d="M66.02,46.22l1.05-1.3c-0.39-0.45-0.64-0.89-0.75-1.33s-0.09-0.98,0.09-1.61c0.17-0.63,0.51-1.3,1.03-2.01l1.11,0.49      c-0.5,0.76-0.79,1.37-0.87,1.84c-0.12,0.67-0.02,1.18,0.29,1.52l3.36-4.14c-0.29-0.4-0.5-0.92-0.64-1.55      c-0.1-0.47-0.06-0.97,0.11-1.5c0.18-0.54,0.47-1.06,0.9-1.59c0.75-0.93,1.59-1.49,2.51-1.69c0.62-0.14,1.26-0.01,1.94,0.39      l1.35-1.67l0.53,0.43l-1.35,1.67c0.47,0.5,0.71,1.06,0.72,1.68c0.01,0.79-0.27,1.64-0.86,2.52l-1.1-0.56      c0.36-0.55,0.57-1.04,0.62-1.45s-0.04-0.78-0.26-1.1l-3.04,3.75c0.32,0.53,0.52,0.91,0.6,1.12c0.14,0.41,0.19,0.81,0.16,1.21      c-0.03,0.4-0.14,0.81-0.33,1.24c-0.19,0.43-0.45,0.85-0.78,1.26c-0.73,0.9-1.54,1.49-2.43,1.77c-0.89,0.28-1.67,0.18-2.34-0.29      l-1.07,1.32L66.02,46.22z M75.25,34.83c-0.42-0.21-0.86-0.23-1.33-0.07c-0.47,0.16-0.88,0.47-1.25,0.92      c-0.36,0.44-0.57,0.88-0.64,1.32c-0.07,0.44,0.03,0.92,0.3,1.43L75.25,34.83z M68.5,44.26c0.4,0.22,0.87,0.24,1.41,0.05      c0.53-0.19,1.03-0.56,1.48-1.12c0.38-0.47,0.61-0.92,0.68-1.34c0.07-0.42-0.05-0.94-0.35-1.56L68.5,44.26z"/></g></g><g><path class="st18" d="M72.86,86.77c-7.88,0-14.28-4.2-14.28-9.39l0-3.72c0,5.18,6.4,9.39,14.28,9.39c7.9,0,14.31-4.2,14.31-9.39     l0,3.72C87.17,82.57,80.77,86.77,72.86,86.77z"/><path d="M66.55,82.07c-4.72-1.53-7.98-4.72-7.98-8.41l0,3.72c0,3.69,3.26,6.88,7.98,8.41V82.07z"/><path class="st19" d="M81.34,81.22v3.72c3.53-1.71,5.83-4.45,5.83-7.55l0-3.72C87.17,76.76,84.87,79.51,81.34,81.22z"/><path class="st20" d="M72.86,86.77c-7.88,0-14.28-4.2-14.28-9.39l0-3.72c0,5.18,6.4,9.39,14.28,9.39c7.9,0,14.31-4.2,14.31-9.39     l0,3.72C87.17,82.57,80.77,86.77,72.86,86.77z"/><ellipse class="st21" cx="72.87" cy="73.66" rx="14.3" ry="9.38"/><ellipse class="st19" cx="72.87" cy="73.66" rx="11.44" ry="7.5"/><path class="st18" d="M72.86,81.16c-3.75,0-7.06-1.18-9.13-2.99c1.91,0.95,4.29,1.5,6.86,1.5c6.34,0,11.45-3.35,11.45-7.49     c0-1.7-0.86-3.28-2.34-4.53c2.79,1.36,4.61,3.55,4.61,6.02C84.31,77.81,79.2,81.16,72.86,81.16z"/><ellipse class="st20" cx="72.87" cy="73.66" rx="11.44" ry="7.5"/><g><path d="M65.43,73.42h1.37c0.09-0.45,0.24-0.81,0.46-1.1s0.58-0.52,1.07-0.73c0.49-0.2,1.09-0.32,1.8-0.36l0.26,0.9      c-0.74,0.07-1.28,0.19-1.62,0.37c-0.49,0.25-0.76,0.56-0.81,0.91l4.36,0c0.11-0.37,0.32-0.75,0.65-1.13      c0.24-0.29,0.58-0.51,1.01-0.66c0.43-0.15,0.92-0.23,1.47-0.23c0.97,0,1.76,0.23,2.37,0.68c0.41,0.3,0.65,0.75,0.75,1.35h1.76      v0.53h-1.76c-0.08,0.52-0.31,0.94-0.7,1.24c-0.5,0.39-1.18,0.63-2.05,0.71l-0.21-0.93c0.54-0.05,0.95-0.16,1.24-0.33      c0.29-0.17,0.48-0.4,0.57-0.69h-3.95c-0.17,0.45-0.31,0.75-0.4,0.9c-0.19,0.28-0.42,0.51-0.68,0.68s-0.59,0.31-0.96,0.41      c-0.37,0.09-0.77,0.14-1.2,0.14c-0.95,0-1.74-0.2-2.37-0.59c-0.63-0.4-0.97-0.91-1.02-1.54h-1.38V73.42z M77.42,73.42      c-0.08-0.35-0.29-0.62-0.64-0.83c-0.34-0.2-0.75-0.3-1.23-0.3c-0.47,0-0.86,0.09-1.17,0.26c-0.31,0.17-0.57,0.46-0.75,0.87      H77.42z M67.95,73.95c0.07,0.35,0.3,0.64,0.69,0.87c0.4,0.23,0.89,0.34,1.47,0.34c0.5,0,0.9-0.08,1.2-0.24      c0.3-0.16,0.57-0.48,0.81-0.97L67.95,73.95z"/></g></g></g></g><g id="Layer_4"/></svg>